# xmcd
#
# Track frame offsets: 
#        150
#        9889
#        22440
#        36481
#        57969
#        72969
#        89631
#        104419
#        121641
#        139373
#
# Disc length: 1986 seconds
#
# Revision: 0
# Processed by: cddbd v1.5.2PL0 Copyright (c) Steve Scherf et al.
# Submitted via: ExactAudioCopy v0.99pb3
#
DISCID=8e07c00a
DTITLE=Tracy Lawrence - All Wrapped Up In Christmas
DYEAR=2007
DGENRE=Country
TTITLE0=All Wrapped Up In Christmas
TTITLE1=Winter Wonderland
TTITLE2=Let It Snow, Let It Snow, Let It Snow
TTITLE3=Have Yourself A Merry Little Christmas
TTITLE4=Here Comes Santa Claus
TTITLE5=Something In The Air
TTITLE6=White Christmas
TTITLE7=The Christmas Song
TTITLE8=Cold Beer
TTITLE9=Frosty The Snowman
EXTD=
EXTT0=
EXTT1=
EXTT2=
EXTT3=
EXTT4=
EXTT5=
EXTT6=
EXTT7=
EXTT8=
EXTT9=
PLAYORDER=
